# xmcd
#
# Track frame offsets:
#	150
#	15204
#	35195
#	49983
#	71222
#	92469
#	109184
#	129130
#	147433
#	159804
#	173045
#
# Disc length: 2580 seconds
#
# Revision: 1
# Processed by: cddbd v1.5.2PL0 Copyright (c) Steve Scherf et al.
# Submitted via: audiograbber 1.83.01
#
DISCID=8a0a120b
DTITLE=Dunderhead - Dunderhead
DYEAR=2015
DGENRE=Bluegrass
TTITLE0=Gone With The Wind
TTITLE1=Some Other Time
TTITLE2=Once And For All
TTITLE3=All For None
TTITLE4=In Silence
TTITLE5=Down The Line
TTITLE6=Love Like A  Loaded Gun
TTITLE7=Little By Little
TTITLE8=Somewhere Along These Tracks
TTITLE9=Diggin' My Own Grave
TTITLE10=Lover's Atlantis
EXTD=www.dunderhead.se
EXTT0=
EXTT1=
EXTT2=
EXTT3=
EXTT4=
EXTT5=
EXTT6=
EXTT7=
EXTT8=
EXTT9=
EXTT10=
PLAYORDER=
